<?xml version="1.0" encoding="UTF-8"?>
<svg width="120px" height="120px" viewBox="0 0 120 120" version="1.1" xmlns="http://www.w3.org/2000/svg" xmlns:xlink="http://www.w3.org/1999/xlink">
    <!-- Generator: Sketch 52.6 (67491) - http://www.bohemiancoding.com/sketch -->
    <title>上一首</title>
    <desc>Created with Sketch.</desc>
  <defs>
        <radialGradient cx="50%" cy="50%" fx="50%" fy="50%" r="50%" gradientTransform="translate(0.500000,0.500000),scale(1.000000,0.994186),translate(-0.500000,-0.500000)" id="radialGradient-1">
            <stop stop-color="#AC2D73" offset="0%"></stop>
            <stop stop-color="#120A82" offset="92%"></stop>
            <stop stop-color="#07006B" offset="100%"></stop>
        </radialGradient>
        <linearGradient x1="90.5072268%" y1="20.6957496%" x2="9.4941375%" y2="79.3043243%" id="linearGradient-2">
            <stop stop-color="#3B2EE8" stop-opacity="0.2" offset="0%"></stop>
            <stop stop-color="#FC429F" offset="25%"></stop>
            <stop stop-color="#B639E5" offset="87%"></stop>
            <stop stop-color="#FCFCFC" offset="100%"></stop>
        </linearGradient>
        <linearGradient x1="126.40209%" y1="13.5040932%" x2="-24.1592819%" y2="87.2715353%" id="linearGradient-3">
            <stop stop-color="#FC429F" offset="0%"></stop>
            <stop stop-color="#3B2EE8" offset="100%"></stop>
        </linearGradient>
        <linearGradient x1="67.8867993%" y1="30.9688504%" x2="75.4688625%" y2="21.1618118%" id="linearGradient-4">
            <stop stop-color="#FC57A9" offset="0%"></stop>
            <stop stop-color="#FCFCFC" offset="100%"></stop>
        </linearGradient>
        <linearGradient x1="61.4131653%" y1="33.8941487%" x2="39.4202448%" y2="71.4869303%" id="linearGradient-5">
            <stop stop-color="#B639E5" offset="0%"></stop>
            <stop stop-color="#3B2EE8" offset="100%"></stop>
        </linearGradient>
        <linearGradient x1="92.2146132%" y1="-4.63859816%" x2="10.4535745%" y2="110.070945%" id="linearGradient-6">
            <stop stop-color="#FC429F" offset="0%"></stop>
            <stop stop-color="#B639E5" offset="100%"></stop>
        </linearGradient>
    </defs>
<symbol id="icon-circle" stroke="none" stroke-width="1" fill="none" fill-rule="evenodd">
        <g id="iPhone-8" transform="translate(-177.000000, -29.000000)">
            <g id="上一首" transform="translate(177.000000, 29.000000)">
                <g id="图-资源-12">
                    <ellipse id="Oval" fill="url(#radialGradient-1)" cx="60" cy="60.3278689" rx="56.0655738" ry="56.3934426"></ellipse>
                    <path d="M59.9548308,5.61469731 C86.7262364,5.59034291 109.53495,25.1646104 113.727249,51.7617846 C117.919548,78.3589588 102.24883,104.07023 76.7829298,112.377093 C51.3170297,120.683956 23.6283668,109.116322 11.5058441,85.1059517 C-0.616678668,61.0955812 6.4316347,31.7820844 28.1225135,15.9982575 C37.381525,9.2515634 48.5217809,5.61766153 59.9548308,5.61469731 Z M59.9548308,3.93450958 C33.9678996,3.96156583 11.4045662,21.9459534 5.43790156,47.387911 C-0.528763057,72.8298686 11.6648878,99.0619808 34.8998782,110.769246 C42.7110885,114.676325 51.3147233,116.713418 60.0383473,116.721311 C81.0928073,116.708669 100.365002,104.83052 109.936925,85.9670171 C119.508848,67.1035138 117.766372,44.4356389 105.425394,27.2765176 C94.8863331,12.5904686 77.9653263,3.9033857 59.9590067,3.93450958 L59.9548308,3.93450958 Z" id="Shape" fill="url(#linearGradient-2)" fill-rule="nonzero"></path>
                    <path d="M3.10837279,78.6885246 C-5.35495222,53.4533715 3.8779541,25.6687872 25.7703616,10.4918033 L28.852459,14.9558468 C8.92145404,28.7385915 0.519285038,54.0210331 8.24380779,76.9680513 L3.10837279,78.6885246 Z" id="Path" fill="url(#linearGradient-3)"></path>
                    <path d="M114.245163,65.6499501 C116.372688,46.0329572 107.677121,26.8058523 91.5234854,15.4091655 C75.3698494,4.01247878 54.2926478,2.23434907 36.4483634,10.7628794 L34.0983607,5.8762456 C53.7206607,-3.5030912 76.898549,-1.5488063 94.6627212,10.9828374 C112.426893,23.5144812 121.990192,44.6572978 119.651842,66.2295082 L114.245163,65.6499501 Z" id="Path" fill="url(#linearGradient-4)"></path>
                    <path d="M54.6247073,120 C35.5244375,118.320115 18.3772721,107.417802 8.52459016,90.6891545 L13.1637002,87.8688525 C22.1211082,103.081395 37.7137233,112.995026 55.0819672,114.520073 L54.6247073,120 Z" id="Path" fill="url(#linearGradient-5)"></path>
                    <path d="M64.6784245,119.344262 L64.2622951,113.931055 C86.6626643,112.2425 105.714136,96.9321406 112.196238,75.4098361 L117.377049,76.9630103 C110.258865,100.635232 89.3126319,117.480598 64.6784245,119.344262 Z" id="Path" fill="url(#linearGradient-6)"></path>
                </g>
                <g id="Group" transform="translate(62.295082, 61.639344) scale(-1, 1) translate(-62.295082, -61.639344) translate(40.655738, 40.655738)" fill="#FFFFFF">
                    <path d="M30.013345,18.4824896 C31.9627648,19.8670855 31.9627648,22.0908305 30.013345,23.4754264 L3.51281591,41.3283223 C1.56339608,42.7129182 -3.77064001e-08,41.7688755 0,39.2514284 L0,2.70648765 C0,0.189040535 1.5826973,-0.734023408 3.51281591,0.629593776 L30.013345,18.4824896 Z" id="Path"></path>
                    <rect id="Rectangle" fill-rule="nonzero" x="36.7213115" y="0" width="6.55737705" height="41.9672131" rx="3.27868852"></rect>
                </g>
            </g>
        </g>
    </symbol>
  
  
   <defs>
        <radialGradient cx="50%" cy="50%" fx="50%" fy="50%" r="50%" gradientTransform="translate(0.500000,0.500000),scale(1.000000,0.994186),translate(-0.500000,-0.500000)" id="radialGradient-1">
            <stop stop-color="#AC2D73" offset="0%"></stop>
            <stop stop-color="#120A82" offset="92%"></stop>
            <stop stop-color="#07006B" offset="100%"></stop>
        </radialGradient>
        <linearGradient x1="90.5072268%" y1="20.6957496%" x2="9.4941375%" y2="79.3043243%" id="linearGradient-2">
            <stop stop-color="#3B2EE8" stop-opacity="0.2" offset="0%"></stop>
            <stop stop-color="#FC429F" offset="25%"></stop>
            <stop stop-color="#B639E5" offset="87%"></stop>
            <stop stop-color="#FCFCFC" offset="100%"></stop>
        </linearGradient>
        <linearGradient x1="126.40209%" y1="13.5040932%" x2="-24.1592819%" y2="87.2715353%" id="linearGradient-3">
            <stop stop-color="#FC429F" offset="0%"></stop>
            <stop stop-color="#3B2EE8" offset="100%"></stop>
        </linearGradient>
        <linearGradient x1="67.8867993%" y1="30.9688504%" x2="75.4688625%" y2="21.1618118%" id="linearGradient-4">
            <stop stop-color="#FC57A9" offset="0%"></stop>
            <stop stop-color="#FCFCFC" offset="100%"></stop>
        </linearGradient>
        <linearGradient x1="61.4131653%" y1="33.8941487%" x2="39.4202448%" y2="71.4869303%" id="linearGradient-5">
            <stop stop-color="#B639E5" offset="0%"></stop>
            <stop stop-color="#3B2EE8" offset="100%"></stop>
        </linearGradient>
        <linearGradient x1="92.2146132%" y1="-4.63859816%" x2="10.4535745%" y2="110.070945%" id="linearGradient-6">
            <stop stop-color="#FC429F" offset="0%"></stop>
            <stop stop-color="#B639E5" offset="100%"></stop>
        </linearGradient>
    </defs>
    <symbol id="icon-next" stroke="none" stroke-width="1" fill="none" fill-rule="evenodd">
        <g id="iPhone-8" transform="translate(-17.000000, -29.000000)">
            <g id="下一首" transform="translate(17.000000, 29.000000)">
                <g id="图-资源-12">
                    <ellipse id="Oval" fill="url(#radialGradient-1)" cx="60" cy="60.3278689" rx="56.0655738" ry="56.3934426"></ellipse>
                    <path d="M59.9548308,5.61469731 C86.7262364,5.59034291 109.53495,25.1646104 113.727249,51.7617846 C117.919548,78.3589588 102.24883,104.07023 76.7829298,112.377093 C51.3170297,120.683956 23.6283668,109.116322 11.5058441,85.1059517 C-0.616678668,61.0955812 6.4316347,31.7820844 28.1225135,15.9982575 C37.381525,9.2515634 48.5217809,5.61766153 59.9548308,5.61469731 Z M59.9548308,3.93450958 C33.9678996,3.96156583 11.4045662,21.9459534 5.43790156,47.387911 C-0.528763057,72.8298686 11.6648878,99.0619808 34.8998782,110.769246 C42.7110885,114.676325 51.3147233,116.713418 60.0383473,116.721311 C81.0928073,116.708669 100.365002,104.83052 109.936925,85.9670171 C119.508848,67.1035138 117.766372,44.4356389 105.425394,27.2765176 C94.8863331,12.5904686 77.9653263,3.9033857 59.9590067,3.93450958 L59.9548308,3.93450958 Z" id="Shape" fill="url(#linearGradient-2)" fill-rule="nonzero"></path>
                    <path d="M3.10837279,78.6885246 C-5.35495222,53.4533715 3.8779541,25.6687872 25.7703616,10.4918033 L28.852459,14.9558468 C8.92145404,28.7385915 0.519285038,54.0210331 8.24380779,76.9680513 L3.10837279,78.6885246 Z" id="Path" fill="url(#linearGradient-3)"></path>
                    <path d="M114.245163,65.6499501 C116.372688,46.0329572 107.677121,26.8058523 91.5234854,15.4091655 C75.3698494,4.01247878 54.2926478,2.23434907 36.4483634,10.7628794 L34.0983607,5.8762456 C53.7206607,-3.5030912 76.898549,-1.5488063 94.6627212,10.9828374 C112.426893,23.5144812 121.990192,44.6572978 119.651842,66.2295082 L114.245163,65.6499501 Z" id="Path" fill="url(#linearGradient-4)"></path>
                    <path d="M54.6247073,120 C35.5244375,118.320115 18.3772721,107.417802 8.52459016,90.6891545 L13.1637002,87.8688525 C22.1211082,103.081395 37.7137233,112.995026 55.0819672,114.520073 L54.6247073,120 Z" id="Path" fill="url(#linearGradient-5)"></path>
                    <path d="M64.6784245,119.344262 L64.2622951,113.931055 C86.6626643,112.2425 105.714136,96.9321406 112.196238,75.4098361 L117.377049,76.9630103 C110.258865,100.635232 89.3126319,117.480598 64.6784245,119.344262 Z" id="Path" fill="url(#linearGradient-6)"></path>
                </g>
                <path d="M70.6690827,59.1382273 C72.6185025,60.5228233 72.6185025,62.7465682 70.6690827,64.1311641 L44.1685536,81.98406 C42.2191338,83.3686559 40.6557377,82.4246132 40.6557377,79.9071661 L40.6557377,43.3622254 C40.6557377,40.8447782 42.238435,39.9217143 44.1685536,41.2853315 L70.6690827,59.1382273 Z" id="Path" fill="#FFFFFF"></path>
                <rect id="Rectangle" fill="#FFFFFF" fill-rule="nonzero" x="77.3770492" y="40.6557377" width="6.55737705" height="41.9672131" rx="3.27868852"></rect>
            </g>
        </g>
    </symbol>
  
  
  
  
  
   <defs>
        <radialGradient cx="50%" cy="50%" fx="50%" fy="50%" r="50%" id="radialGradient-1">
            <stop stop-color="#AC2D73" offset="0%"></stop>
            <stop stop-color="#120A82" offset="92%"></stop>
            <stop stop-color="#07006B" offset="100%"></stop>
        </radialGradient>
        <linearGradient x1="90.5072268%" y1="20.6957496%" x2="9.4941375%" y2="79.3043243%" id="linearGradient-2">
            <stop stop-color="#3B2EE8" stop-opacity="0.2" offset="0%"></stop>
            <stop stop-color="#FC429F" offset="25%"></stop>
            <stop stop-color="#B639E5" offset="87%"></stop>
            <stop stop-color="#FCFCFC" offset="100%"></stop>
        </linearGradient>
        <linearGradient x1="126.40209%" y1="13.5040932%" x2="-24.1592819%" y2="87.2715353%" id="linearGradient-3">
            <stop stop-color="#FC429F" offset="0%"></stop>
            <stop stop-color="#3B2EE8" offset="100%"></stop>
        </linearGradient>
        <linearGradient x1="67.8867993%" y1="30.9688504%" x2="75.4688625%" y2="21.1618118%" id="linearGradient-4">
            <stop stop-color="#FC57A9" offset="0%"></stop>
            <stop stop-color="#FCFCFC" offset="100%"></stop>
        </linearGradient>
        <linearGradient x1="61.4131653%" y1="33.8941487%" x2="39.4202448%" y2="71.4869303%" id="linearGradient-5">
            <stop stop-color="#B639E5" offset="0%"></stop>
            <stop stop-color="#3B2EE8" offset="100%"></stop>
        </linearGradient>
        <linearGradient x1="92.2146132%" y1="-4.63859816%" x2="10.4535745%" y2="110.070945%" id="linearGradient-6">
            <stop stop-color="#FC429F" offset="0%"></stop>
            <stop stop-color="#B639E5" offset="100%"></stop>
        </linearGradient>
        <linearGradient x1="-0.012371134%" y1="49.9958763%" x2="99.9876289%" y2="49.9958763%" id="linearGradient-7">
            <stop stop-color="#FC429F" offset="0%"></stop>
            <stop stop-color="#3B2EE8" stop-opacity="0.2" offset="100%"></stop>
        </linearGradient>
        <linearGradient x1="99.9876289%" y1="50.0041237%" x2="-0.012371134%" y2="50.0041237%" id="linearGradient-8">
            <stop stop-color="#FC429F" offset="0%"></stop>
            <stop stop-color="#3B2EE8" stop-opacity="0.2" offset="100%"></stop>
        </linearGradient>
    </defs>
    <symbol id="icon-play" stroke="none" stroke-width="1" fill="none" fill-rule="evenodd">
        <g id="iPhone-8" transform="translate(-98.000000, -367.000000)">
            <g id="图-资源-14" transform="translate(98.000000, 367.000000)">
                <circle id="Oval" fill="url(#radialGradient-1)" cx="60" cy="60" r="56.2303665"></circle>
                <path d="M59.9546981,5.44504565 C86.8047924,5.42076168 109.680547,24.9384252 113.885169,51.4586868 C118.08979,77.9789484 102.373011,103.615869 76.8322597,111.89871 C51.2915079,120.181552 23.5214602,108.647369 11.3633059,84.7064306 C-0.794848386,60.7654923 6.27418198,31.536763 28.0288164,15.7985791 C37.3150428,9.07139481 48.4880431,5.4480013 59.9546981,5.44504565 Z M59.9546981,3.76971662 C33.8913838,3.79669463 11.2617303,21.7290757 5.27752798,47.0974614 C-0.706674366,72.465847 11.5228171,98.6221023 34.8261017,110.295513 C42.6602715,114.191294 51.2891948,116.222496 60.0384601,116.230366 C81.154805,116.217761 100.483646,104.373961 110.083704,85.5650061 C119.683762,66.7560514 117.936164,44.1537265 105.558912,27.0442253 C94.988874,12.4006447 78.0181315,3.73868274 59.9588862,3.76971662 L59.9546981,3.76971662 Z" id="Shape" fill="url(#linearGradient-2)" fill-rule="nonzero"></path>
                <path d="M3.11355095,79.1623037 C-5.36387289,53.8217077 3.88441428,25.9210279 25.8132918,10.6806283 L28.9005236,15.1633244 C8.93631605,29.0036591 0.520150101,54.3917412 8.25754093,77.4346415 L3.11355095,79.1623037 Z" id="Path" fill="url(#linearGradient-3)"></path>
                <path d="M114.233663,66.0140859 C116.365439,46.2882849 107.652496,26.9545344 91.4665801,15.4946344 C75.280664,4.0347345 54.1613434,2.24674217 36.2814004,10.8225771 L33.9267016,5.90883895 C53.5882132,-3.52252155 76.8124185,-1.55739696 94.6120892,11.0437551 C112.41176,23.6449072 121.994169,44.9049952 119.651146,66.5968586 L114.233663,66.0140859 Z" id="Path" fill="url(#linearGradient-4)"></path>
                <path d="M54.8251683,120 C35.4939093,118.324782 18.1393746,107.452756 8.16753927,90.7705822 L12.8627524,87.9581152 C21.9284868,103.128396 37.7096713,113.014486 55.2879581,114.535296 L54.8251683,120 Z" id="Path" fill="url(#linearGradient-5)"></path>
                <path d="M64.5021584,119.371728 L64.0837696,113.953021 C86.605762,112.262751 105.760674,96.9368384 112.277971,75.3926702 L117.486911,76.9474222 C110.330079,100.643692 89.2701176,117.50617 64.5021584,119.371728 Z" id="Path" fill="url(#linearGradient-6)"></path>
                <path d="M110.563403,60.3141361 L103.889467,60.3141361 C103.889467,35.9171429 84.2338809,16.1394721 59.9874864,16.1394721 C35.7410918,16.1394721 16.0855055,35.9171429 16.0855055,60.3141361 L9.42408377,60.3141361 C9.42408377,32.2083363 32.0676928,9.42408377 60,9.42408377 C87.9323072,9.42408377 110.575916,32.2083363 110.575916,60.3141361 L110.563403,60.3141361 Z" id="Path" fill="url(#linearGradient-7)"></path>
                <path d="M59.9874864,110.575916 C32.072455,110.538907 9.45395703,87.7742888 9.42408377,59.6858639 L16.0980191,59.6858639 C16.0980191,84.0828571 35.7536055,103.860528 60,103.860528 C84.2463945,103.860528 103.901981,84.0828571 103.901981,59.6858639 L110.575916,59.6858639 C110.546018,87.7841084 87.9122915,110.552783 59.9874864,110.575916 Z" id="Path" fill="url(#linearGradient-8)"></path>
                <path d="M80.41678,57.618233 C82.5386301,59.1106606 82.5386301,61.5075899 80.41678,63.0000176 L51.572223,82.2432892 C49.4503729,83.7357169 47.7486911,82.7181526 47.7486911,80.0046478 L47.7486911,40.6136028 C47.7486911,37.900098 49.4713813,36.9051462 51.572223,38.3749613 L80.41678,57.618233 Z" id="Path" fill="#FFFFFF"></path>
            </g>
        </g>
    </symbol>

</svg>